<svg width="1553" height="292" viewBox="0 0 1553 292" fill="none" xmlns="http://www.w3.org/2000/svg">
<path d="M3.17477 1.48242C17.9159 7.66641 39.2901 3.95889 55.1934 3.95889H171.616C156.875 -2.22511 135.501 1.48242 119.597 1.48242H3.17477Z" fill="#FF4A4A"/>
<path d="M267.397 2.30782C266.295 3.40861 268.911 3.27092 269.047 3.13348C270.149 2.03268 267.533 2.17013 267.397 2.30782Z" fill="#FF4A4A"/>
<path d="M270.699 1.48241C275.081 3.41134 278.22 3.74195 283.085 3.95888C278.703 2.02996 275.564 1.69935 270.699 1.48241Z" fill="#FF4A4A"/>
<path d="M283.085 1.48241C294.776 6.38706 310.134 3.95888 322.718 3.95888H406.938C395.247 -0.946013 379.889 1.48241 367.305 1.48241H283.085Z" fill="#FF4A4A"/>
<path d="M406.938 1.48241C410.03 3.1783 410.773 3.3368 414.37 3.95888C411.278 2.263 410.535 2.1045 406.938 1.48241Z" fill="#FF4A4A"/>
<path d="M497.765 2.30782C496.663 3.40861 499.279 3.27092 499.415 3.13348C500.517 2.03268 497.902 2.17013 497.765 2.30782Z" fill="#FF4A4A"/>
<path d="M501.067 1.48241C505.449 3.41134 508.588 3.74195 513.453 3.95888C509.071 2.02996 505.932 1.69935 501.067 1.48241Z" fill="#FF4A4A"/>
<path d="M513.453 1.48241C525.145 6.38706 540.502 3.95888 553.086 3.95888H637.307C625.615 -0.946013 610.257 1.48241 597.673 1.48241H513.453Z" fill="#FF4A4A"/>
<path d="M637.307 1.48241C640.398 3.1783 641.144 3.3368 644.738 3.95888C641.646 2.263 640.903 2.1045 637.307 1.48241Z" fill="#FF4A4A"/>
<path d="M728.134 2.30782C727.031 3.40836 729.647 3.27117 729.783 3.13348C730.886 2.03244 728.27 2.17038 728.134 2.30782Z" fill="#FF4A4A"/>
<path d="M731.436 1.48241C735.166 3.17384 737.17 3.52773 741.344 3.95888C737.613 2.26746 735.609 1.91357 731.436 1.48241Z" fill="#FF4A4A"/>
<path d="M741.344 1.48241C752.414 6.12629 766.588 3.95888 778.5 3.95888H850.335C839.265 -0.684994 825.091 1.48241 813.179 1.48241H741.344Z" fill="#FF4A4A"/>
<path d="M850.335 1.48241C854.717 3.41134 857.856 3.74195 862.721 3.95888C858.339 2.02996 855.2 1.69935 850.335 1.48241Z" fill="#FF4A4A"/>
<path d="M864.373 2.30782C863.271 3.40836 865.886 3.27117 866.023 3.13348C867.125 2.03244 864.509 2.17038 864.373 2.30782Z" fill="#FF4A4A"/>
<path d="M907.308 1.48241C923.85 8.42148 948.883 3.95888 966.758 3.95888H1098.04C1081.5 -2.98044 1056.47 1.48241 1038.59 1.48241H907.308ZM1110.43 1.48241C1125.17 7.66665 1146.54 3.95888 1162.45 3.95888H1276.39C1261.65 -2.22511 1240.28 1.48241 1224.37 1.48241H1110.43ZM1353.18 1.48241C1369.12 8.17062 1392.94 3.95888 1410.15 3.95888H1531.53C1515.59 -2.72932 1491.78 1.48241 1474.56 1.48241H1353.18Z" fill="#FF4A4A"/>
<path d="M0.697693 3.95889V288.753C8.13933 271.024 3.17477 243.543 3.17477 224.365V78.253C3.17477 56.468 9.1361 24.0636 0.697693 3.95889Z" fill="#FF4A4A"/>
<path d="M185.654 4.78429C184.551 5.88508 187.167 5.74739 187.303 5.60995C188.406 4.50916 185.79 4.64685 185.654 4.78429Z" fill="#FF4A4A"/>
<path d="M780.977 179.788H694.279C694.279 200.42 694.042 221.069 694.289 241.7C694.45 255.241 696.241 270.821 706.994 280.348C719.679 291.584 738.077 288.753 753.729 288.753C790.36 288.753 828.753 292.074 865.198 288.493C878.671 287.171 890.774 279.607 895.284 266.455C898.973 255.702 897.4 242.985 897.4 231.794V172.359C897.392 155.502 896.424 138.654 879.837 129.477C863.144 120.242 839.193 120.453 820.61 117.877C811.041 116.55 799.045 115.784 792.723 107.405C786.598 99.2824 785.3 77.1252 792.379 69.1822C802.773 57.5247 810.271 74.3689 810.655 83.2059C810.94 89.7879 810.702 96.4298 810.702 103.018H897.4C897.4 77.7651 907.028 28.633 884.487 11.0272C872.285 1.49703 854.896 3.95889 840.427 3.95889L741.344 3.95888C722.748 3.96607 705.444 6.2994 698.275 26.2491C694.002 38.1485 694.279 50.9571 694.279 63.3942C694.277 91.3147 685.927 135.944 716.583 151.139C733.197 159.374 755.436 159.913 773.546 163.072C783.556 164.819 795.072 166.226 801.433 175.166C808.198 184.678 808.703 209.308 801.145 218.612C789.699 232.706 781.547 211.353 781.076 202.077C780.702 194.674 780.977 187.199 780.977 179.788Z" fill="#FF4A4A"/>
<path d="M907.308 3.95889V93.1118C910.878 84.6064 909.785 75.0395 909.785 65.8706C909.785 47.3471 914.499 21.0928 907.308 3.95889Z" fill="#FF4A4A"/>
<path d="M909.785 3.95889V93.1118C920.82 93.1118 944.459 88.6666 952.879 97.0826C962.146 106.348 956.85 135.38 956.85 147.594V286.277H1050.98V93.1118H1098.04L1098.04 3.95888L909.785 3.95889Z" fill="#FF4A4A"/>
<path d="M1098.04 3.95888L1098.04 95.5883C1101.61 87.0826 1100.52 77.516 1100.52 68.3471C1100.52 49.1701 1105.48 21.6887 1098.04 3.95888Z" fill="#FF4A4A"/>
<path d="M1107.95 3.95889V288.753C1116.39 268.649 1110.43 236.244 1110.43 214.459V68.3471C1110.43 49.1701 1115.39 21.6887 1107.95 3.95889Z" fill="#FF4A4A"/>
<path d="M1290.43 4.78429C1289.33 5.88558 1291.94 5.74715 1292.08 5.60995C1293.18 4.50941 1290.57 4.64636 1290.43 4.78429Z" fill="#FF4A4A"/>
<path d="M1353.18 3.95889V11.3883C1354.91 7.5406 1354.91 7.80658 1353.18 3.95889Z" fill="#FF4A4A"/>
<path d="M1532.36 5.60995C1532.22 5.74739 1532.08 8.36155 1533.18 7.26076C1533.32 7.12307 1533.46 4.50916 1532.36 5.60995Z" fill="#FF4A4A"/>
<path d="M1531.53 8.91183V16.3412C1533.26 12.4935 1533.26 12.7595 1531.53 8.91183Z" fill="#FF4A4A"/>
<path d="M1532.36 17.9923C1532.22 18.1297 1532.08 20.7439 1533.18 19.6431C1533.32 19.5054 1533.46 16.8915 1532.36 17.9923Z" fill="#FF4A4A"/>
<path d="M1351.53 20.4688C1351.39 20.606 1351.25 23.2206 1352.36 22.1196C1352.49 21.9819 1352.63 19.368 1351.53 20.4688Z" fill="#FF4A4A"/>
<path d="M1532.36 22.9452C1532.22 23.0827 1532.08 25.6968 1533.18 24.5961C1533.32 24.4584 1533.46 21.8442 1532.36 22.9452Z" fill="#FF4A4A"/>
<path d="M1351.53 25.4217C1351.39 25.5589 1351.25 28.1733 1352.36 27.0725C1352.49 26.9348 1352.63 24.3209 1351.53 25.4217Z" fill="#FF4A4A"/>
<path d="M1532.36 27.8982C1532.22 28.0356 1532.08 30.6498 1533.18 29.549C1533.32 29.4113 1533.46 26.7974 1532.36 27.8982Z" fill="#FF4A4A"/>
<path d="M695.104 30.3746C694.968 30.5123 694.829 33.126 695.932 32.0255C696.068 31.888 696.207 29.2739 695.104 30.3746Z" fill="#FF4A4A"/>
<path d="M1351.53 30.3746C1351.39 30.5118 1351.25 33.1263 1352.36 32.0255C1352.49 31.8878 1352.63 29.2739 1351.53 30.3746Z" fill="#FF4A4A"/>
<path d="M234.368 32.8511C234.232 32.9886 234.093 35.6027 235.195 34.5019C235.331 34.3645 235.47 31.7503 234.368 32.8511ZM464.736 32.8511C464.6 32.9886 464.461 35.6027 465.563 34.5019C465.7 34.3643 465.838 31.7506 464.736 32.8511Z" fill="#FF4A4A"/>
<path d="M1321.8 32.8511C1321.67 32.9886 1321.53 35.6027 1322.63 34.5019C1322.77 34.3642 1322.91 31.7503 1321.8 32.8511Z" fill="#FF4A4A"/>
<path d="M217.028 35.3276C216.892 35.465 216.753 38.0792 217.856 36.9784C217.992 36.8407 218.131 34.227 217.028 35.3276Z" fill="#FF4A4A"/>
<path d="M447.396 35.3276C447.26 35.465 447.122 38.0792 448.224 36.9784C448.36 36.841 448.499 34.2268 447.396 35.3276ZM677.765 35.3276C677.628 35.4653 677.49 38.079 678.592 36.9784C678.728 36.841 678.867 34.2268 677.765 35.3276Z" fill="#FF4A4A"/>
<path d="M695.104 35.3276C694.968 35.4653 694.829 38.079 695.932 36.9784C696.068 36.841 696.207 34.2268 695.104 35.3276Z" fill="#FF4A4A"/>
<path d="M1351.53 35.3276C1351.39 35.4648 1351.25 38.0792 1352.36 36.9784C1352.49 36.8407 1352.63 34.2268 1351.53 35.3276Z" fill="#FF4A4A"/>
<path d="M234.368 37.8041C234.232 37.9415 234.093 40.5557 235.195 39.4549C235.331 39.3174 235.47 36.7033 234.368 37.8041ZM464.736 37.8041C464.6 37.9415 464.461 40.5557 465.563 39.4549C465.7 39.3172 465.838 36.7035 464.736 37.8041Z" fill="#FF4A4A"/>
<path d="M898.225 37.8041C898.088 37.9418 897.95 40.5554 899.052 39.4549C899.188 39.3174 899.327 36.7033 898.225 37.8041Z" fill="#FF4A4A"/>
<path d="M1321.8 37.8041C1321.67 37.9415 1321.53 40.5557 1322.63 39.4549C1322.77 39.3172 1322.91 36.7033 1321.8 37.8041Z" fill="#FF4A4A"/>
<path d="M446.572 38.6295V46.0589C448.296 42.2112 448.296 42.4772 446.572 38.6295ZM676.94 38.6295V46.0589C678.664 42.2112 678.664 42.4772 676.94 38.6295Z" fill="#FF4A4A"/>
<path d="M1351.53 40.2805C1351.39 40.4177 1351.25 43.0321 1352.36 41.9314C1352.49 41.7937 1352.63 39.1797 1351.53 40.2805Z" fill="#FF4A4A"/>
<path d="M1534.83 40.2805C1534.7 40.418 1534.56 43.0321 1535.66 41.9314C1535.8 41.7937 1535.94 39.1797 1534.83 40.2805Z" fill="#FF4A4A"/>
<path d="M897.4 41.1059V103.018C903.377 88.7773 903.377 55.3466 897.4 41.1059Z" fill="#FF4A4A"/>
<path d="M219.505 45.2335C219.369 45.3709 219.23 47.9851 220.333 46.8843C220.469 46.7466 220.608 44.1329 219.505 45.2335Z" fill="#FF4A4A"/>
<path d="M691.802 43.5824V115.4C697.48 101.873 694.279 82.9256 694.279 68.3471C694.279 59.8811 695.092 51.4219 691.802 43.5824Z" fill="#FF4A4A"/>
<path d="M1534.83 45.2335C1534.7 45.3709 1534.56 47.9851 1535.66 46.8843C1535.8 46.7466 1535.94 44.1327 1534.83 45.2335Z" fill="#FF4A4A"/>
<path d="M231.066 46.0589V244.177C236.743 230.65 233.543 211.703 233.543 197.124V98.0648C233.543 82.1653 237.251 60.7964 231.066 46.0589ZM461.434 46.0589V244.177C467.112 230.65 463.911 211.703 463.911 197.124V98.0648C463.911 82.1653 467.619 60.7964 461.434 46.0589Z" fill="#FF4A4A"/>
<path d="M1323.46 46.0589V100.541C1328.95 87.4476 1328.95 59.1525 1323.46 46.0589Z" fill="#FF4A4A"/>
<path d="M218.68 48.5354V80.7295C222.622 71.3404 222.622 57.9244 218.68 48.5354Z" fill="#FF4A4A"/>
<path d="M1534.01 48.5354V55.9648C1535.73 52.1171 1535.73 52.383 1534.01 48.5354Z" fill="#FF4A4A"/>
<path d="M1348.23 53.4883V60.9177C1349.95 57.07 1349.95 57.336 1348.23 53.4883Z" fill="#FF4A4A"/>
<path d="M1534.83 57.6158C1534.7 57.7535 1534.56 60.3672 1535.66 59.2666C1535.8 59.1294 1535.94 56.5145 1534.83 57.6158Z" fill="#FF4A4A"/>
<path d="M99.7808 58.4412C104.163 60.3702 107.301 60.7008 112.166 60.9177C107.784 58.9888 104.646 58.6582 99.7808 58.4412ZM1207.03 58.4412C1211.42 60.3702 1214.55 60.7008 1219.42 60.9177C1215.04 58.9885 1211.9 58.6582 1207.03 58.4412Z" fill="#FF4A4A"/>
<path d="M99.7808 60.9177V115.4C105.277 102.306 105.277 74.0116 99.7808 60.9177Z" fill="#FF4A4A"/>
<path fill-rule="evenodd" clip-rule="evenodd" d="M233.545 58.4412C233.647 37.4189 236.689 11.1455 260.791 5.27926C271.479 2.67775 283.485 3.15494 295.028 3.61372C299.403 3.78758 303.711 3.9588 307.855 3.9588H397.03C397.573 3.95884 398.118 3.95826 398.664 3.95768C414.595 3.94079 431.422 3.92294 441.053 19.0507C450.427 33.7779 449.807 55.4719 449.277 74.0028C449.161 78.0856 449.049 82.0149 449.049 85.6823C449.049 101.724 449.174 117.783 449.3 133.847C449.556 166.508 449.812 199.19 449.012 231.794C448.476 253.694 447.074 280.732 421.801 287.371C411.24 290.145 399.134 289.625 387.572 289.128C383.176 288.939 378.86 288.753 374.736 288.753H285.562C284.898 288.753 284.232 288.754 283.564 288.755C267.616 288.782 250.704 288.81 240.987 273.785C231.541 259.176 232.39 238.896 233.15 220.736C233.35 215.974 233.543 211.359 233.543 207.029C233.543 190.578 233.517 174.126 233.49 157.674C233.438 124.596 233.385 91.5169 233.545 58.4412ZM329.952 90.2578C329.441 80.3882 328.709 66.2544 338.108 63.0255C353.13 57.8646 352.694 79.6883 352.483 90.2575C352.462 91.341 352.443 92.3062 352.443 93.1119V197.124C352.443 198.306 352.492 199.721 352.547 201.288C352.903 211.424 353.484 227.954 342.311 229.513C329.03 231.368 329.7 211.478 330.057 200.888C330.106 199.43 330.149 198.148 330.149 197.124V95.5884C330.149 94.0685 330.055 92.25 329.952 90.2578Z" fill="#FF4A4A"/>
<path fill-rule="evenodd" clip-rule="evenodd" d="M463.914 58.4412C464.015 37.4189 467.057 11.1455 491.159 5.27926C501.847 2.67775 513.853 3.15494 525.396 3.61372C529.771 3.78758 534.079 3.9588 538.223 3.9588H627.398C627.942 3.95884 628.486 3.95826 629.032 3.95768C644.963 3.94079 661.791 3.92294 671.421 19.0507C680.795 33.7779 680.175 55.4719 679.646 74.0028C679.529 78.0856 679.417 82.0149 679.417 85.6823C679.417 101.724 679.543 117.783 679.668 133.847C679.924 166.507 680.18 199.19 679.38 231.794C678.845 253.694 677.443 280.732 652.169 287.371C641.608 290.145 629.502 289.625 617.94 289.128C613.545 288.939 609.228 288.753 605.104 288.753H515.93C515.266 288.753 514.6 288.754 513.932 288.755C497.984 288.782 481.072 288.81 471.355 273.785C461.909 259.176 462.758 238.896 463.519 220.736C463.718 215.974 463.911 211.359 463.911 207.029C463.911 190.578 463.885 174.126 463.859 157.674C463.806 124.596 463.753 91.5169 463.914 58.4412ZM560.32 90.2579C559.809 80.3883 559.078 66.2544 568.476 63.0255C583.498 57.8646 583.062 79.6883 582.852 90.2575C582.83 91.341 582.811 92.3062 582.811 93.1119V197.124C582.811 198.306 582.86 199.721 582.916 201.288C583.272 211.424 583.852 227.954 572.68 229.513C559.398 231.368 560.068 211.478 560.425 200.888C560.474 199.43 560.517 198.148 560.517 197.124V95.5884C560.517 94.0685 560.423 92.25 560.32 90.2579Z" fill="#FF4A4A"/>
<path d="M1207.03 60.9177V122.829C1213.01 108.589 1213.01 75.1579 1207.03 60.9177Z" fill="#FF4A4A"/>
<path fill-rule="evenodd" clip-rule="evenodd" d="M1110.43 288.753V3.95899H1249.14C1252.45 3.95899 1255.94 3.85119 1259.53 3.74026C1276.3 3.22184 1295.3 2.63477 1308.46 12.6591C1323.45 24.0746 1323.45 45.5 1323.46 62.68C1323.46 62.9189 1323.46 63.157 1323.46 63.3943C1323.46 66.029 1323.48 68.7228 1323.51 71.4526C1323.82 104.651 1324.18 143.156 1281.35 145.118V152.547C1314.94 153.263 1323.31 173.94 1323.45 204.553C1323.49 212.238 1323.2 220.172 1322.91 228.201C1322.16 248.628 1321.39 269.665 1325.93 288.753H1229.33V216.935C1229.33 214.778 1229.44 212.435 1229.55 209.998C1229.95 201.499 1230.41 191.872 1226.41 185.108C1222.09 177.805 1214.61 177.558 1207.03 177.312V288.753H1110.43ZM1209.51 122.83V60.9178C1229.66 61.5774 1229.52 75.1712 1229.36 91.2524C1229.34 92.6805 1229.33 94.1283 1229.33 95.5884C1229.33 96.8452 1229.38 98.2033 1229.43 99.619C1229.67 106.283 1229.95 114.221 1225.36 118.859C1221.68 122.576 1216.3 122.685 1211.37 122.784C1210.74 122.797 1210.12 122.81 1209.51 122.83Z" fill="#FF4A4A"/>
<path d="M1348.23 60.9177V68.3471C1349.95 64.4994 1349.95 64.7654 1348.23 60.9177Z" fill="#FF4A4A"/>
<path d="M1534.01 60.9177V68.3471C1535.73 64.4994 1535.73 64.7654 1534.01 60.9177Z" fill="#FF4A4A"/>
<path d="M1432.45 63.3942V70.8236C1434.17 66.9759 1434.17 67.2421 1432.45 63.3942Z" fill="#FF4A4A"/>
<path fill-rule="evenodd" clip-rule="evenodd" d="M1350.1 69.1663C1350.89 47.279 1351.69 25.3508 1355.66 3.9588L1531.53 3.95888C1531.54 58.4728 1536.73 113.058 1541.92 167.61C1545.77 208.023 1549.62 248.418 1551.35 288.753H1457.22L1454.74 219.412C1453.27 219.412 1451.63 219.337 1449.91 219.259C1442.65 218.928 1433.85 218.527 1428.99 223.382C1424.91 227.454 1424.97 233.894 1425.01 239.46C1425.02 240.226 1425.02 240.976 1425.02 241.7C1424.95 252.195 1424.97 262.691 1424.99 273.187C1425.01 278.376 1425.02 283.564 1425.02 288.753H1335.84C1335.84 234.918 1341.08 180.452 1346.25 126.73C1346.77 121.294 1347.29 115.866 1347.81 110.447C1349.11 96.8 1349.6 82.9913 1350.1 69.1663ZM1432.45 109.092C1433.63 93.8563 1434.8 78.6251 1434.93 63.3941H1444.83L1444.88 63.9742C1447.34 95.1776 1449.79 126.129 1449.79 157.5H1429.97C1429.97 141.356 1431.21 125.222 1432.45 109.092Z" fill="#FF4A4A"/>
<path d="M1444.83 63.3941L1444.83 70.8236C1446.56 66.9759 1446.56 67.2418 1444.83 63.3941Z" fill="#FF4A4A"/>
<path d="M1230.15 69.9982C1230.02 70.1356 1229.88 72.7498 1230.98 71.649C1231.12 71.5116 1231.26 68.8974 1230.15 69.9982Z" fill="#FF4A4A"/>
<path d="M1348.23 68.3471V75.7765C1349.95 71.9288 1349.95 72.1948 1348.23 68.3471Z" fill="#FF4A4A"/>
<path d="M789.233 72.4747C789.097 72.6119 788.958 75.2263 790.06 74.1255C790.197 73.9878 790.335 71.3739 789.233 72.4747Z" fill="#FF4A4A"/>
<path d="M809.05 72.4747C808.914 72.6119 808.775 75.2263 809.877 74.1255C810.013 73.9878 810.152 71.3739 809.05 72.4747Z" fill="#FF4A4A"/>
<path d="M1432.45 70.8236V78.253C1434.17 74.4053 1434.17 74.6715 1432.45 70.8236Z" fill="#FF4A4A"/>
<path d="M1445.66 72.4746C1445.52 72.6123 1445.38 75.226 1446.49 74.1255C1446.62 73.988 1446.76 71.3739 1445.66 72.4746Z" fill="#FF4A4A"/>
<path d="M122.074 73.3001V103.018C125.821 94.0918 125.821 82.226 122.074 73.3001Z" fill="#FF4A4A"/>
<path d="M327.672 73.3001V219.412C332.054 208.974 330.149 195.975 330.149 184.741V112.924C330.149 100.343 332.579 84.9888 327.672 73.3001Z" fill="#FF4A4A"/>
<path d="M352.443 73.3001V216.935C356.825 206.497 354.92 193.497 354.92 182.265V112.924C354.92 100.343 357.35 84.9888 352.443 73.3001Z" fill="#FF4A4A"/>
<path d="M558.04 73.3001V219.412C562.422 208.974 560.517 195.972 560.517 184.741V112.924C560.517 100.343 562.947 84.9888 558.04 73.3001Z" fill="#FF4A4A"/>
<path d="M582.811 73.3001V216.935C587.718 205.246 585.288 189.893 585.288 177.312V107.971C585.288 96.7386 587.193 83.7386 582.811 73.3001Z" fill="#FF4A4A"/>
<path d="M1229.33 73.3001V110.447C1233.64 100.176 1233.64 83.5715 1229.33 73.3001Z" fill="#FF4A4A"/>
<path d="M1536.49 73.3001V80.7295C1538.21 76.8815 1538.21 77.1478 1536.49 73.3001Z" fill="#FF4A4A"/>
<path d="M808.225 75.7765V103.018C811.77 94.573 811.77 84.2213 808.225 75.7765Z" fill="#FF4A4A"/>
<path d="M1349.05 77.4276C1348.92 77.565 1348.78 80.1792 1349.88 79.0784C1350.02 78.941 1350.15 76.3268 1349.05 77.4276Z" fill="#FF4A4A"/>
<path d="M1433.27 79.9041C1433.14 80.0418 1433 82.6554 1434.1 81.5549C1434.24 81.4174 1434.38 78.8033 1433.27 79.9041Z" fill="#FF4A4A"/>
<path d="M218.68 80.7295V90.6354C220.439 86.278 220.439 85.0868 218.68 80.7295Z" fill="#FF4A4A"/>
<path d="M1537.31 82.3805C1537.17 82.518 1537.04 85.1321 1538.14 84.0314C1538.27 83.8939 1538.41 81.2797 1537.31 82.3805Z" fill="#FF4A4A"/>
<path d="M1448.14 84.857C1448 84.9944 1447.86 87.6086 1448.96 86.5078C1449.1 86.3704 1449.24 83.7562 1448.14 84.857Z" fill="#FF4A4A"/>
<path d="M1536.49 85.6824V93.1118C1538.21 89.2639 1538.21 89.5304 1536.49 85.6824Z" fill="#FF4A4A"/>
<path d="M1346.58 89.8099C1346.44 89.9471 1346.3 92.5618 1347.4 91.4608C1347.54 91.3233 1347.68 88.7092 1346.58 89.8099Z" fill="#FF4A4A"/>
<path d="M1447.31 88.1589V95.5883C1449.03 91.7406 1449.03 92.0066 1447.31 88.1589Z" fill="#FF4A4A"/>
<path d="M907.308 93.1118C920.855 98.7953 939.755 95.5883 954.372 95.5883C940.825 89.9048 921.925 93.1118 907.308 93.1118ZM1050.98 93.1118C1064.53 98.7953 1083.43 95.5883 1098.04 95.5883C1084.5 89.9048 1065.6 93.1118 1050.98 93.1118Z" fill="#FF4A4A"/>
<path d="M1346.58 94.7629C1346.44 94.9001 1346.3 97.5147 1347.4 96.4137C1347.54 96.2763 1347.68 93.6621 1346.58 94.7629Z" fill="#FF4A4A"/>
<path d="M1430.8 94.7629C1430.66 94.9001 1430.52 97.5147 1431.62 96.4137C1431.76 96.2763 1431.9 93.6621 1430.8 94.7629Z" fill="#FF4A4A"/>
<path d="M1536.49 93.1118V100.541C1538.21 96.6936 1538.21 96.9595 1536.49 93.1118Z" fill="#FF4A4A"/>
<path d="M217.028 97.2394C216.892 97.3768 216.753 99.991 217.856 98.8902C217.992 98.7527 218.131 96.1386 217.028 97.2394Z" fill="#FF4A4A"/>
<path d="M954.372 95.5883L954.372 286.277C959.795 273.357 956.849 255.615 956.849 241.7V145.118C956.849 129.878 960.305 109.722 954.372 95.5883Z" fill="#FF4A4A"/>
<path d="M1050.98 95.5883V286.277C1056.4 273.357 1053.46 255.615 1053.46 241.7V145.118C1053.46 129.878 1056.91 109.722 1050.98 95.5883Z" fill="#FF4A4A"/>
<path d="M1447.31 95.5883V103.018C1449.03 99.17 1449.03 99.436 1447.31 95.5883Z" fill="#FF4A4A"/>
<path d="M1346.58 99.7158C1346.44 99.853 1346.3 102.468 1347.4 101.367C1347.54 101.229 1347.68 98.615 1346.58 99.7158Z" fill="#FF4A4A"/>
<path d="M1429.97 98.0648V105.494C1431.7 101.646 1431.7 101.912 1429.97 98.0648Z" fill="#FF4A4A"/>
<path d="M1324.28 102.192C1324.15 102.33 1324.01 104.944 1325.11 103.843C1325.25 103.706 1325.38 101.092 1324.28 102.192Z" fill="#FF4A4A"/>
<path d="M1345.75 103.018V110.447C1347.47 106.599 1347.47 106.865 1345.75 103.018Z" fill="#FF4A4A"/>
<path d="M1447.31 103.018V110.447C1449.03 106.599 1449.03 106.865 1447.31 103.018Z" fill="#FF4A4A"/>
<path d="M1429.97 105.494V112.924C1431.7 109.076 1431.7 109.342 1429.97 105.494Z" fill="#FF4A4A"/>
<path d="M1538.96 107.971V115.4C1540.69 111.552 1540.69 111.818 1538.96 107.971Z" fill="#FF4A4A"/>
<path d="M1230.15 112.098C1230.02 112.236 1229.88 114.85 1230.98 113.749C1231.12 113.612 1231.26 110.997 1230.15 112.098Z" fill="#FF4A4A"/>
<path d="M1321.8 112.098C1321.67 112.236 1321.53 114.85 1322.63 113.749C1322.77 113.612 1322.91 110.997 1321.8 112.098Z" fill="#FF4A4A"/>
<path d="M1345.75 110.447V117.877C1347.47 114.029 1347.47 114.295 1345.75 110.447Z" fill="#FF4A4A"/>
<path d="M1448.14 112.098C1448 112.236 1447.86 114.85 1448.96 113.749C1449.1 113.612 1449.24 110.997 1448.14 112.098Z" fill="#FF4A4A"/>
<path d="M1429.97 112.924V120.353C1431.7 116.505 1431.7 116.771 1429.97 112.924Z" fill="#FF4A4A"/>
<path d="M99.7808 115.4C104.864 117.565 109.063 117.76 114.643 117.877C109.56 115.711 105.361 115.517 99.7808 115.4Z" fill="#FF4A4A"/>
<path d="M810.702 115.4C813.793 117.096 814.536 117.254 818.133 117.877C815.042 116.181 814.299 116.022 810.702 115.4Z" fill="#FF4A4A"/>
<path d="M819.785 116.225C818.683 117.327 821.299 117.188 821.435 117.051C822.537 115.951 819.922 116.088 819.785 116.225Z" fill="#FF4A4A"/>
<path d="M1539.79 117.051C1539.65 117.189 1539.51 119.802 1540.61 118.702C1540.75 118.564 1540.89 115.95 1539.79 117.051Z" fill="#FF4A4A"/>
<path d="M828.042 117.877C831.133 119.572 831.876 119.731 835.473 120.353C832.381 118.657 831.638 118.499 828.042 117.877Z" fill="#FF4A4A"/>
<path d="M837.125 118.702C836.023 119.803 838.639 119.665 838.775 119.528C839.877 118.427 837.261 118.564 837.125 118.702Z" fill="#FF4A4A"/>
<path d="M845.381 120.353C848.472 122.049 849.216 122.207 852.812 122.829C849.721 121.134 848.978 120.975 845.381 120.353Z" fill="#FF4A4A"/>
<path d="M854.465 121.178C853.362 122.279 855.978 122.142 856.114 122.004C857.217 120.904 854.601 121.041 854.465 121.178Z" fill="#FF4A4A"/>
<path d="M1429.97 120.353V132.735C1432.03 127.707 1432.03 125.381 1429.97 120.353Z" fill="#FF4A4A"/>
<path d="M1539.79 122.004C1539.65 122.142 1539.51 124.755 1540.61 123.655C1540.75 123.517 1540.89 120.903 1539.79 122.004Z" fill="#FF4A4A"/>
<path d="M864.373 123.655C863.271 124.756 865.886 124.618 866.023 124.481C867.125 123.38 864.509 123.517 864.373 123.655Z" fill="#FF4A4A"/>
<path d="M1207.03 122.829C1212.12 124.994 1216.32 125.189 1221.9 125.306C1216.81 123.141 1212.62 122.946 1207.03 122.829Z" fill="#FF4A4A"/>
<path d="M1343.27 122.829V130.259C1345 126.411 1345 126.677 1343.27 122.829Z" fill="#FF4A4A"/>
<path d="M1449.79 122.829V130.259C1451.51 126.411 1451.51 126.677 1449.79 122.829Z" fill="#FF4A4A"/>
<path d="M1539.79 126.957C1539.65 127.095 1539.51 129.708 1540.61 128.608C1540.75 128.47 1540.89 125.856 1539.79 126.957Z" fill="#FF4A4A"/>
<path d="M1344.1 131.91C1343.96 132.047 1343.82 134.662 1344.93 133.561C1345.06 133.423 1345.2 130.809 1344.1 131.91Z" fill="#FF4A4A"/>
<path d="M1449.79 130.259V137.688C1451.51 133.841 1451.51 134.107 1449.79 130.259Z" fill="#FF4A4A"/>
<path d="M1539.79 131.91C1539.65 132.048 1539.51 134.661 1540.61 133.561C1540.75 133.423 1540.89 130.809 1539.79 131.91Z" fill="#FF4A4A"/>
<path d="M1344.1 136.863C1343.96 137 1343.82 139.614 1344.93 138.514C1345.06 138.376 1345.2 135.762 1344.1 136.863Z" fill="#FF4A4A"/>
<path d="M174.918 139.339C174.782 139.477 174.643 142.091 175.745 140.99C175.882 140.853 176.02 138.239 174.918 139.339Z" fill="#FF4A4A"/>
<path d="M1449.79 137.688V145.118C1451.51 141.27 1451.51 141.536 1449.79 137.688Z" fill="#FF4A4A"/>
<path d="M1343.27 140.165V147.594C1345 143.746 1345 144.012 1343.27 140.165Z" fill="#FF4A4A"/>
<path d="M1542.26 144.292C1542.13 144.43 1541.99 147.044 1543.09 145.943C1543.23 145.806 1543.37 143.192 1542.26 144.292Z" fill="#FF4A4A"/>
<path d="M1427.49 145.118V159.977C1429.85 154.317 1429.85 150.777 1427.49 145.118Z" fill="#FF4A4A"/>
<path d="M1449.79 145.118V152.547C1451.51 148.699 1451.51 148.965 1449.79 145.118Z" fill="#FF4A4A"/>
<path d="M1542.26 149.245C1542.13 149.383 1541.99 151.997 1543.09 150.896C1543.23 150.759 1543.37 148.144 1542.26 149.245Z" fill="#FF4A4A"/>
<path d="M1283.82 150.071C1286.92 151.767 1287.66 151.925 1291.25 152.547C1288.16 150.851 1287.42 150.693 1283.82 150.071Z" fill="#FF4A4A"/>
<path d="M1449.79 152.547C1443.45 157.356 1437.88 157.413 1429.97 157.5C1435.7 160.263 1453.78 163.139 1449.79 152.547Z" fill="#FF4A4A"/>
<path d="M1542.26 154.198C1542.13 154.336 1541.99 156.95 1543.09 155.849C1543.23 155.712 1543.37 153.097 1542.26 154.198Z" fill="#FF4A4A"/>
<path d="M730.611 155.849C729.508 156.95 732.124 156.812 732.26 156.675C733.363 155.574 730.747 155.712 730.611 155.849Z" fill="#FF4A4A"/>
<path d="M897.4 155.024V162.453C899.124 158.605 899.124 158.871 897.4 155.024Z" fill="#FF4A4A"/>
<path d="M742.996 158.325C741.894 159.427 744.51 159.289 744.646 159.151C745.748 158.051 743.132 158.188 742.996 158.325Z" fill="#FF4A4A"/>
<path d="M747.95 158.325C746.848 159.427 749.464 159.288 749.6 159.151C750.702 158.051 748.086 158.188 747.95 158.325Z" fill="#FF4A4A"/>
<path d="M1341.62 159.151C1341.49 159.289 1341.35 161.903 1342.45 160.802C1342.58 160.664 1342.72 158.05 1341.62 159.151Z" fill="#FF4A4A"/>
<path d="M1541.44 157.5V164.929C1543.16 161.082 1543.16 161.348 1541.44 157.5Z" fill="#FF4A4A"/>
<path d="M755.381 160.802C754.279 161.903 756.895 161.765 757.031 161.628C758.133 160.527 755.518 160.664 755.381 160.802Z" fill="#FF4A4A"/>
<path d="M760.336 160.802C759.233 161.903 761.849 161.765 761.985 161.628C763.088 160.527 760.472 160.664 760.336 160.802Z" fill="#FF4A4A"/>
<path d="M770.244 163.278C769.142 164.379 771.757 164.241 771.894 164.104C772.996 163.004 770.38 163.141 770.244 163.278Z" fill="#FF4A4A"/>
<path d="M775.198 163.278C774.096 164.379 776.712 164.241 776.848 164.104C777.95 163.004 775.334 163.141 775.198 163.278Z" fill="#FF4A4A"/>
<path d="M897.4 162.453V241.7C903.838 226.361 899.877 203.775 899.877 187.218C899.877 178.752 900.689 170.293 897.4 162.453Z" fill="#FF4A4A"/>
<path d="M1341.62 164.104C1341.49 164.242 1341.35 166.856 1342.45 165.755C1342.58 165.617 1342.72 163.003 1341.62 164.104Z" fill="#FF4A4A"/>
<path d="M99.7808 164.929C104.864 167.094 109.063 167.289 114.643 167.406C109.56 165.241 105.361 165.046 99.7808 164.929Z" fill="#FF4A4A"/>
<path d="M783.454 164.929C786.546 166.626 787.289 166.784 790.885 167.406C787.794 165.71 787.051 165.552 783.454 164.929Z" fill="#FF4A4A"/>
<path d="M1541.44 164.929V172.359C1543.16 168.511 1543.16 168.777 1541.44 164.929Z" fill="#FF4A4A"/>
<path d="M99.7808 167.406V231.794C105.917 217.176 105.917 182.025 99.7808 167.406Z" fill="#FF4A4A"/>
<path fill-rule="evenodd" clip-rule="evenodd" d="M3.17479 3.95884V288.753H149.322C151.267 288.753 153.34 288.778 155.509 288.803C172.739 289.007 195.972 289.283 207.93 277.871C222.126 264.319 221.643 238.32 221.269 218.186C221.212 215.137 221.158 212.222 221.158 209.506L221.158 208.94C221.159 195.058 221.16 180.505 215.847 167.408C211.17 155.881 202.066 152.148 193.165 148.497C185.791 145.473 178.556 142.506 174.093 135.212C216.724 131.467 218.693 95.4823 218.681 60.9177C218.673 42.8932 218.131 21.7669 201.294 10.7404C188.057 2.07104 168.833 2.88269 152.001 3.59337C147.591 3.77957 143.345 3.95884 139.414 3.95884H3.17479ZM102.258 60.9178V115.4C102.857 115.381 103.466 115.368 104.081 115.356C108.938 115.257 114.156 115.15 117.763 111.429C125.239 103.717 125.239 72.6013 117.763 64.8886C114.156 61.1678 108.938 61.0614 104.081 60.9624C103.466 60.9498 102.857 60.9374 102.258 60.9178ZM102.258 231.794V167.406C102.867 167.426 103.487 167.438 104.115 167.451C109.049 167.551 114.425 167.659 118.106 171.377C122.699 176.013 122.413 183.949 122.174 190.612C122.123 192.029 122.074 193.389 122.074 194.647C122.075 196.559 122.108 198.462 122.141 200.34C122.419 216.473 122.664 230.667 102.258 231.794Z" fill="#FF4A4A"/>
<path d="M1340.8 167.406V174.835C1342.52 170.987 1342.52 171.254 1340.8 167.406Z" fill="#FF4A4A"/>
<path d="M219.505 176.486C219.369 176.624 219.23 179.238 220.333 178.137C220.469 178 220.608 175.386 219.505 176.486Z" fill="#FF4A4A"/>
<path d="M1341.62 176.486C1341.49 176.624 1341.35 179.238 1342.45 178.137C1342.58 178 1342.72 175.386 1341.62 176.486Z" fill="#FF4A4A"/>
<path d="M122.074 177.312V219.412C126.738 208.302 126.738 188.423 122.074 177.312Z" fill="#FF4A4A"/>
<path d="M691.802 177.312V246.653C698.253 231.282 698.253 192.682 691.802 177.312Z" fill="#FF4A4A"/>
<path d="M694.279 177.312C703.442 181.155 714.138 179.788 724.004 179.788H780.977C771.814 175.945 761.118 177.312 751.252 177.312H694.279Z" fill="#FF4A4A"/>
<path d="M780.977 177.312V214.459C785.287 204.186 785.287 187.583 780.977 177.312Z" fill="#FF4A4A"/>
<path d="M803.271 177.312V214.459C807.581 204.186 807.581 187.583 803.271 177.312Z" fill="#FF4A4A"/>
<path d="M1207.03 177.312V288.753C1211.68 277.686 1209.51 263.515 1209.51 251.606V179.788H1219.42C1215.04 177.859 1211.9 177.529 1207.03 177.312Z" fill="#FF4A4A"/>
<path d="M1321.8 178.963C1321.67 179.101 1321.53 181.714 1322.63 180.614C1322.77 180.476 1322.91 177.862 1321.8 178.963Z" fill="#FF4A4A"/>
<path d="M1544.74 178.963C1544.61 179.1 1544.47 181.714 1545.57 180.614C1545.71 180.476 1545.84 177.862 1544.74 178.963Z" fill="#FF4A4A"/>
<path d="M219.505 181.439C219.369 181.577 219.23 184.191 220.333 183.09C220.469 182.953 220.608 180.339 219.505 181.439Z" fill="#FF4A4A"/>
<path d="M1341.62 181.439C1341.49 181.577 1341.35 184.191 1342.45 183.09C1342.58 182.953 1342.72 180.339 1341.62 181.439Z" fill="#FF4A4A"/>
<path d="M1321.8 183.916C1321.67 184.054 1321.53 186.667 1322.63 185.567C1322.77 185.429 1322.91 182.815 1321.8 183.916Z" fill="#FF4A4A"/>
<path d="M1543.92 182.265V189.694C1545.64 185.846 1545.64 186.112 1543.92 182.265Z" fill="#FF4A4A"/>
<path d="M1227.68 186.392C1227.54 186.53 1227.4 189.144 1228.5 188.043C1228.64 187.906 1228.78 185.292 1227.68 186.392Z" fill="#FF4A4A"/>
<path d="M1226.85 189.694V288.753C1234.79 269.835 1229.33 239.895 1229.33 219.412C1229.33 209.548 1230.7 198.855 1226.85 189.694Z" fill="#FF4A4A"/>
<path d="M1544.74 191.345C1544.61 191.483 1544.47 194.097 1545.57 192.996C1545.71 192.859 1545.84 190.244 1544.74 191.345Z" fill="#FF4A4A"/>
<path d="M1339.14 193.822C1339.01 193.959 1338.87 196.574 1339.97 195.472C1340.11 195.336 1340.25 192.721 1339.14 193.822Z" fill="#FF4A4A"/>
<path d="M1543.92 194.647V202.077C1545.64 198.228 1545.64 198.496 1543.92 194.647Z" fill="#FF4A4A"/>
<path d="M1339.14 198.775C1339.01 198.912 1338.87 201.527 1339.97 200.425C1340.11 200.289 1340.25 197.673 1339.14 198.775Z" fill="#FF4A4A"/>
<path d="M1339.14 203.728C1339.01 203.865 1338.87 206.48 1339.97 205.378C1340.11 205.241 1340.25 202.626 1339.14 203.728Z" fill="#FF4A4A"/>
<path d="M1339.14 208.681C1339.01 208.817 1338.87 211.433 1339.97 210.331C1340.11 210.194 1340.25 207.579 1339.14 208.681Z" fill="#FF4A4A"/>
<path d="M1339.14 213.634C1339.01 213.77 1338.87 216.386 1339.97 215.284C1340.11 215.147 1340.25 212.532 1339.14 213.634Z" fill="#FF4A4A"/>
<path d="M1547.22 213.634C1547.08 213.77 1546.94 216.386 1548.05 215.284C1548.18 215.147 1548.32 212.532 1547.22 213.634Z" fill="#FF4A4A"/>
<path d="M1547.22 218.587C1547.08 218.723 1546.94 221.339 1548.05 220.237C1548.18 220.1 1548.32 217.485 1547.22 218.587Z" fill="#FF4A4A"/>
<path d="M1427.49 219.412C1436 222.978 1445.58 221.888 1454.74 221.888C1446.24 218.322 1436.66 219.412 1427.49 219.412Z" fill="#FF4A4A"/>
<path d="M1425.02 221.888V244.177C1428.13 236.762 1428.13 229.303 1425.02 221.888Z" fill="#FF4A4A"/>
<path d="M1546.39 221.888V229.318C1548.12 225.469 1548.12 225.737 1546.39 221.888Z" fill="#FF4A4A"/>
<path d="M1335.84 226.841V234.271C1337.57 230.422 1337.57 230.69 1335.84 226.841Z" fill="#FF4A4A"/>
<path d="M1547.22 230.97C1547.08 231.106 1546.94 233.721 1548.05 232.619C1548.18 232.483 1548.32 229.867 1547.22 230.97Z" fill="#FF4A4A"/>
<path d="M99.7808 231.794C104.163 233.723 107.301 234.053 112.166 234.271C107.784 232.341 104.646 232.012 99.7808 231.794Z" fill="#FF4A4A"/>
<path d="M1335.84 234.271V241.7C1337.57 237.852 1337.57 238.119 1335.84 234.271Z" fill="#FF4A4A"/>
<path d="M1547.22 235.922C1547.08 236.059 1546.94 238.674 1548.05 237.572C1548.18 237.436 1548.32 234.82 1547.22 235.922Z" fill="#FF4A4A"/>
<path d="M218.68 241.7V249.129C220.405 245.281 220.405 245.549 218.68 241.7Z" fill="#FF4A4A"/>
<path d="M897.4 241.7V254.082C899.456 249.055 899.456 246.727 897.4 241.7Z" fill="#FF4A4A"/>
<path d="M1336.67 243.352C1336.53 243.488 1336.39 246.103 1337.49 245.001C1337.63 244.865 1337.77 242.25 1336.67 243.352Z" fill="#FF4A4A"/>
<path d="M446.572 244.177V254.082C448.33 249.726 448.33 248.533 446.572 244.177ZM676.94 244.177V254.082C678.699 249.724 678.699 248.533 676.94 244.177Z" fill="#FF4A4A"/>
<path d="M1425.02 244.177V261.512C1427.64 255.236 1427.64 250.452 1425.02 244.177Z" fill="#FF4A4A"/>
<path d="M1454.74 244.177V256.559C1456.8 251.532 1456.8 249.204 1454.74 244.177Z" fill="#FF4A4A"/>
<path d="M1336.67 248.305C1336.53 248.441 1336.39 251.056 1337.49 249.954C1337.63 249.818 1337.77 247.203 1336.67 248.305Z" fill="#FF4A4A"/>
<path d="M1548.87 246.653V254.082C1550.6 250.234 1550.6 250.501 1548.87 246.653Z" fill="#FF4A4A"/>
<path d="M218.68 249.129V256.559C220.405 252.71 220.405 252.978 218.68 249.129Z" fill="#FF4A4A"/>
<path d="M447.396 255.734C447.26 255.87 447.122 258.486 448.224 257.384C448.36 257.247 448.499 254.632 447.396 255.734ZM677.765 255.734C677.628 255.87 677.49 258.486 678.592 257.384C678.728 257.247 678.867 254.632 677.765 255.734Z" fill="#FF4A4A"/>
<path d="M1549.7 255.734C1549.56 255.87 1549.42 258.486 1550.52 257.384C1550.66 257.247 1550.8 254.632 1549.7 255.734Z" fill="#FF4A4A"/>
<path d="M234.368 258.211C234.232 258.347 234.093 260.962 235.195 259.86C235.331 259.724 235.47 257.109 234.368 258.211ZM464.736 258.211C464.6 258.347 464.461 260.962 465.563 259.86C465.7 259.724 465.838 257.109 464.736 258.211Z" fill="#FF4A4A"/>
<path d="M694.279 256.559V263.988C696.003 260.14 696.003 260.407 694.279 256.559Z" fill="#FF4A4A"/>
<path d="M1454.74 256.559V273.894C1457.37 267.619 1457.37 262.834 1454.74 256.559Z" fill="#FF4A4A"/>
<path d="M1549.7 260.687C1549.56 260.823 1549.42 263.439 1550.52 262.336C1550.66 262.2 1550.8 259.585 1549.7 260.687Z" fill="#FF4A4A"/>
<path d="M1334.19 263.164C1334.05 263.3 1333.92 265.915 1335.02 264.813C1335.15 264.677 1335.29 262.062 1334.19 263.164Z" fill="#FF4A4A"/>
<path d="M1425.02 261.512V278.847C1427.64 272.572 1427.64 267.787 1425.02 261.512Z" fill="#FF4A4A"/>
<path d="M1323.46 263.988V271.418C1325.18 267.569 1325.18 267.837 1323.46 263.988Z" fill="#FF4A4A"/>
<path d="M1549.7 265.64C1549.56 265.776 1549.42 268.391 1550.52 267.289C1550.66 267.153 1550.8 264.538 1549.7 265.64Z" fill="#FF4A4A"/>
<path d="M1333.37 266.465V273.894C1335.09 270.046 1335.09 270.313 1333.37 266.465Z" fill="#FF4A4A"/>
<path d="M1548.87 268.941V276.371C1550.6 272.522 1550.6 272.79 1548.87 268.941Z" fill="#FF4A4A"/>
<path d="M1323.46 271.418V278.847C1325.18 274.999 1325.18 275.266 1323.46 271.418Z" fill="#FF4A4A"/>
<path d="M1334.19 275.546C1334.05 275.682 1333.92 278.297 1335.02 277.195C1335.15 277.059 1335.29 274.444 1334.19 275.546Z" fill="#FF4A4A"/>
<path d="M1454.74 273.894V281.324C1456.47 277.475 1456.47 277.743 1454.74 273.894Z" fill="#FF4A4A"/>
<path d="M1323.46 278.847V286.277C1325.18 282.428 1325.18 282.696 1323.46 278.847Z" fill="#FF4A4A"/>
<path d="M1333.37 278.847V288.753C1335.12 284.397 1335.12 283.203 1333.37 278.847Z" fill="#FF4A4A"/>
<path d="M1454.74 281.324V288.753C1456.47 284.905 1456.47 285.172 1454.74 281.324Z" fill="#FF4A4A"/>
<path d="M1551.35 281.324L1551.35 288.753C1553.07 284.904 1553.07 285.172 1551.35 281.324Z" fill="#FF4A4A"/>
<path d="M174.093 286.277C178.475 288.206 181.614 288.535 186.478 288.753C182.097 286.824 178.958 286.494 174.093 286.277Z" fill="#FF4A4A"/>
<path d="M954.372 286.277C964.179 290.39 976.022 288.753 986.574 288.753H1050.98C1041.17 284.64 1029.33 286.277 1018.78 286.277H954.372Z" fill="#FF4A4A"/>
<path d="M267.397 289.578C266.295 290.68 268.911 290.541 269.047 290.405C270.149 289.303 267.533 289.441 267.397 289.578Z" fill="#FF4A4A"/>
<path d="M270.699 288.753C273.79 290.449 274.534 290.608 278.13 291.229C275.039 289.533 274.296 289.375 270.699 288.753Z" fill="#FF4A4A"/>
<path d="M278.13 288.753C290.439 293.916 306.988 291.229 320.241 291.229H406.938C394.63 286.066 378.08 288.753 364.828 288.753H278.13Z" fill="#FF4A4A"/>
<path d="M406.938 288.753C410.03 290.449 410.773 290.608 414.37 291.229C411.278 289.533 410.535 289.375 406.938 288.753Z" fill="#FF4A4A"/>
<path d="M497.765 289.578C496.663 290.68 499.279 290.541 499.415 290.405C500.517 289.303 497.902 289.441 497.765 289.578Z" fill="#FF4A4A"/>
<path d="M501.067 288.753C504.159 290.449 504.902 290.608 508.499 291.229C505.407 289.533 504.664 289.375 501.067 288.753Z" fill="#FF4A4A"/>
<path d="M508.499 288.753C520.807 293.916 537.357 291.229 550.609 291.229H637.307C624.998 286.066 608.449 288.753 595.196 288.753H508.499Z" fill="#FF4A4A"/>
<path d="M637.307 288.753C640.398 290.449 641.141 290.608 644.738 291.229C641.646 289.533 640.903 289.375 637.307 288.753Z" fill="#FF4A4A"/>
<path d="M728.134 289.578C727.031 290.68 729.647 290.541 729.783 290.405C730.886 289.303 728.27 289.441 728.134 289.578Z" fill="#FF4A4A"/>
<path d="M731.436 288.753C734.527 290.449 735.27 290.608 738.867 291.229C735.775 289.533 735.032 289.375 731.436 288.753Z" fill="#FF4A4A"/>
<path d="M738.867 288.753C750.559 293.659 765.916 291.229 778.5 291.229H857.766C846.075 286.324 830.717 288.753 818.133 288.753H738.867Z" fill="#FF4A4A"/>
<path d="M857.766 288.753C860.858 290.449 861.601 290.608 865.198 291.229C862.106 289.533 861.363 289.375 857.766 288.753Z" fill="#FF4A4A"/>
</svg>
